<svg xmlns="http://www.w3.org/2000/svg" width="2048" height="2048" viewBox="0 0 2048 2048" version="1.1"><path d="M 1014.462 206.043 C 1011.691 207.109, 1007.802 209.673, 1005.820 211.741 C 1003.838 213.808, 932.553 302.575, 847.407 409 C 762.262 515.425, 684.092 613.075, 673.695 626 C 663.297 638.925, 653.683 651.855, 652.330 654.733 L 649.869 659.967 648.479 720.733 C 647.715 754.155, 646.617 803.550, 646.039 830.500 C 643.459 950.724, 642.905 974.299, 642.370 986.705 L 641.800 999.910 639.150 999.465 C 633.867 998.579, 455.288 981.975, 381.123 975.475 C 351.616 972.889, 348.092 973.047, 340.547 977.289 C 334.981 980.418, 330.402 986.846, 328.874 993.675 C 327.559 999.550, 328.352 1013.887, 332.489 1059 C 333.271 1067.525, 336.855 1110.050, 340.454 1153.500 C 344.052 1196.950, 348.336 1247.800, 349.973 1266.500 C 351.610 1285.200, 353.625 1308.600, 354.451 1318.500 C 356.936 1348.270, 359.930 1385.052, 360.476 1392.500 C 361.047 1400.281, 366.236 1460.417, 368.534 1485.869 C 370.208 1504.414, 371.585 1508.685, 377.814 1514.656 C 380.280 1517.020, 396.780 1526.763, 420.662 1539.958 C 442.023 1551.760, 499.100 1583.423, 547.500 1610.320 C 595.900 1637.217, 646.300 1665.185, 659.500 1672.470 C 672.700 1679.756, 715.225 1703.383, 754 1724.974 C 924.873 1820.122, 959.918 1839.530, 966.528 1842.671 C 979.288 1848.735, 985.122 1849.406, 1025.500 1849.451 C 1066.649 1849.497, 1068.608 1849.230, 1084.024 1841.488 C 1089.005 1838.986, 1110.500 1827.214, 1131.790 1815.327 C 1153.081 1803.440, 1190.075 1782.817, 1214 1769.498 C 1237.925 1756.179, 1263.575 1741.889, 1271 1737.744 C 1278.425 1733.598, 1295.975 1723.799, 1310 1715.968 C 1324.025 1708.136, 1342.025 1698.144, 1350 1693.762 C 1357.975 1689.380, 1375.975 1679.373, 1390 1671.525 C 1404.025 1663.677, 1471.750 1626.043, 1540.500 1587.896 C 1617.512 1545.164, 1667.098 1517.072, 1669.661 1514.722 C 1676.661 1508.308, 1677.680 1504.903, 1679.951 1480.333 C 1682.364 1454.230, 1687.073 1399.059, 1690.478 1356.989 C 1691.835 1340.220, 1694.771 1305.125, 1697.002 1279 C 1699.233 1252.875, 1703.065 1207.200, 1705.518 1177.500 C 1707.971 1147.800, 1712.031 1100.100, 1714.541 1071.500 C 1720.416 1004.532, 1720.760 997.804, 1718.631 991.395 C 1715.686 982.527, 1708.448 976.042, 1699.133 973.923 C 1695.515 973.101, 1696.223 973.043, 1570.500 984.500 C 1431.196 997.195, 1412.601 998.912, 1409.399 999.376 L 1406.299 999.826 1405.636 977.663 C 1405.272 965.473, 1404.522 935.475, 1403.970 911 C 1403.418 886.525, 1402.536 848.275, 1402.010 826 C 1401.484 803.725, 1400.573 760.750, 1399.985 730.500 C 1398.847 671.931, 1398.063 657.956, 1395.651 653.292 C 1394.819 651.683, 1387.979 642.747, 1380.450 633.434 C 1372.921 624.120, 1294.171 525.787, 1205.450 414.915 C 1116.730 304.043, 1042.540 211.925, 1040.584 210.208 C 1036.692 206.791, 1028.666 203.970, 1023.068 204.052 C 1021.106 204.081, 1017.233 204.977, 1014.462 206.043 M 926.832 390.865 C 887.415 440.164, 847.797 489.725, 838.792 501 C 829.787 512.275, 802.525 546.333, 778.210 576.683 C 753.894 607.034, 734 632.073, 734 632.326 C 734 632.578, 745.133 643.070, 758.740 655.642 C 772.346 668.214, 797.541 691.663, 814.728 707.750 C 831.914 723.837, 846.192 737, 846.456 737 C 847.550 737, 998.098 623.907, 998.536 622.755 C 998.799 622.065, 998.898 549.439, 998.757 461.365 L 998.500 301.229 926.832 390.865 M 1049 461.083 L 1049 621.594 1052.750 625.177 C 1055.727 628.021, 1196.260 733.571, 1200.834 736.397 C 1202.297 737.301, 1202.804 736.856, 1240.580 701.486 C 1257.036 686.078, 1280.175 664.491, 1292 653.513 C 1303.825 642.535, 1313.645 633.218, 1313.823 632.809 C 1314.148 632.058, 1285.705 596.266, 1162.986 443 C 1126.214 397.075, 1086.156 346.900, 1073.968 331.500 C 1061.779 316.100, 1051.175 302.841, 1050.403 302.036 C 1049.199 300.779, 1049 323.285, 1049 461.083 M 946.250 725.282 L 869 783.447 869 1039.259 L 869 1295.071 894.413 1358.785 C 926.122 1438.288, 928.695 1444.882, 939.766 1475 C 963.535 1539.664, 981.182 1593.290, 999.496 1656.500 C 1003.161 1669.150, 1007.455 1683.775, 1009.037 1689 C 1010.619 1694.225, 1014.434 1707.725, 1017.514 1719 C 1020.594 1730.275, 1023.370 1740.175, 1023.684 1741 C 1023.997 1741.825, 1025.350 1738.450, 1026.690 1733.500 C 1046.332 1660.929, 1074.216 1570.347, 1095.028 1511.500 C 1110.043 1469.043, 1139.848 1392.529, 1171.103 1316.206 L 1179.004 1296.911 1178.752 1039.748 L 1178.500 782.585 1166.854 774.042 C 1160.448 769.344, 1135.248 750.433, 1110.854 732.018 C 1048.069 684.623, 1024.575 667.060, 1024 667.091 C 1023.725 667.106, 988.737 693.292, 946.250 725.282 M 700.335 672.236 C 699.539 673.494, 698.803 697.674, 697.588 762.500 C 697.238 781.200, 696.521 815.850, 695.996 839.500 C 695.471 863.150, 694.584 905.900, 694.026 934.500 C 693.467 963.100, 692.768 993.982, 692.473 1003.127 L 691.936 1019.754 707.107 1043.127 C 715.451 1055.982, 728.225 1075.725, 735.493 1087 C 742.761 1098.275, 762.569 1128.875, 779.510 1155 C 796.451 1181.125, 812.092 1205.313, 814.268 1208.750 C 816.443 1212.188, 818.398 1215, 818.612 1215 C 818.825 1215, 818.970 1117.237, 818.933 997.750 L 818.867 780.500 809.683 772.077 C 796.716 760.183, 758.305 724.319, 747 713.550 C 719.024 686.899, 701.099 671.030, 700.335 672.236 M 1339.439 677.978 C 1335.072 682.019, 1324.059 692.339, 1314.964 700.913 C 1299.197 715.775, 1272.621 740.609, 1242.750 768.392 L 1229 781.181 1229 998.305 C 1229 1184.199, 1229.201 1215.218, 1230.397 1213.964 C 1231.165 1213.159, 1238.297 1202.375, 1246.246 1190 C 1254.195 1177.625, 1265.153 1160.640, 1270.599 1152.257 C 1312.562 1087.652, 1346.664 1035.002, 1352.163 1026.333 L 1356.074 1020.167 1355.048 975.833 C 1354.016 931.210, 1353.356 899.542, 1350.438 754.500 C 1349.564 711.050, 1348.518 674.405, 1348.113 673.066 C 1347.402 670.712, 1347.116 670.874, 1339.439 677.978 M 413.679 1031.250 C 414.794 1032.487, 425.785 1045.376, 438.103 1059.892 C 450.421 1074.407, 474.900 1103.226, 492.500 1123.933 C 510.100 1144.640, 537.325 1176.836, 553 1195.479 C 568.675 1214.123, 584.228 1232.554, 587.561 1236.438 C 611.966 1264.873, 683.313 1351.221, 723.500 1400.960 C 729.550 1408.448, 740.881 1422.433, 748.680 1432.037 C 813.750 1512.169, 896.952 1620.262, 954.395 1699.296 C 958.711 1705.233, 962.382 1709.951, 962.553 1709.780 C 963.226 1709.108, 935.692 1617.303, 925.279 1585.500 C 913.053 1548.158, 894.298 1495.968, 878.204 1454.500 C 864.141 1418.263, 824.780 1320.344, 822.130 1315 C 820.630 1311.975, 802.476 1283.400, 781.788 1251.500 C 761.100 1219.600, 738.498 1184.725, 731.560 1174 C 718.750 1154.196, 704.794 1132.676, 670.884 1080.434 L 652.017 1051.368 628.758 1049.105 C 588.819 1045.219, 414.905 1029.059, 412.576 1029.017 C 412.067 1029.007, 412.564 1030.013, 413.679 1031.250 M 1622 1030.070 C 1617.875 1030.513, 1596.950 1032.494, 1575.500 1034.473 C 1444.448 1046.565, 1396.427 1051.199, 1395.865 1051.810 C 1395.259 1052.470, 1363.625 1101.226, 1332.807 1149 C 1324.824 1161.375, 1306.682 1189.500, 1292.490 1211.500 C 1278.299 1233.500, 1257.904 1265, 1247.168 1281.500 C 1225.038 1315.512, 1226.188 1313.135, 1199.022 1381 C 1177.487 1434.799, 1160.671 1478.264, 1148.922 1510.500 C 1139.980 1535.032, 1115.345 1608.508, 1106.509 1637 C 1100.437 1656.576, 1085.853 1708.187, 1086.274 1708.608 C 1086.494 1708.827, 1095.409 1697.193, 1106.087 1682.754 C 1173.819 1591.161, 1236.255 1510.331, 1302.869 1428 C 1346.802 1373.701, 1347.942 1372.297, 1367.403 1348.500 C 1392.346 1318.001, 1462.041 1234.696, 1510.500 1177.461 C 1523.150 1162.520, 1541.600 1140.683, 1551.500 1128.934 C 1561.400 1117.185, 1578.926 1096.531, 1590.447 1083.036 C 1622.465 1045.531, 1633.401 1032.665, 1634.887 1030.750 C 1636.123 1029.157, 1635.942 1029.012, 1632.872 1029.133 C 1631.018 1029.206, 1626.125 1029.628, 1622 1030.070 M 384.455 1077.503 C 385.068 1081.156, 387.151 1105.094, 390.501 1147 C 391.886 1164.325, 393.242 1180.300, 393.515 1182.500 C 393.788 1184.700, 395.146 1201.350, 396.532 1219.500 C 397.918 1237.650, 400.155 1264.650, 401.504 1279.500 C 402.852 1294.350, 404.669 1315.950, 405.541 1327.500 C 407.111 1348.281, 411.814 1404.681, 416.091 1454 C 417.308 1468.025, 418.797 1480.025, 419.401 1480.668 C 420.006 1481.310, 440.750 1493.067, 465.500 1506.795 C 490.250 1520.523, 512.525 1532.888, 515 1534.273 C 528.926 1542.063, 661.718 1615.682, 703 1638.498 C 729.675 1653.241, 756.450 1668.100, 762.500 1671.519 C 768.550 1674.939, 792.175 1688.079, 815 1700.721 C 837.825 1713.362, 875.696 1734.346, 899.159 1747.353 C 922.621 1760.359, 942.105 1771, 942.457 1771 C 942.808 1771, 941.640 1768.862, 939.861 1766.250 C 926.703 1746.930, 848.402 1641.228, 819.671 1604 C 811.394 1593.275, 798.543 1576.625, 791.113 1567 C 779.414 1551.844, 706.356 1460.253, 671.464 1417 C 635.860 1372.863, 516.251 1229.638, 455.588 1158.500 C 446.676 1148.050, 427.763 1125.775, 413.558 1109 C 399.353 1092.225, 386.881 1077.602, 385.841 1076.503 C 383.967 1074.523, 383.956 1074.532, 384.455 1077.503 M 1658.780 1080.202 C 1644.443 1097.244, 1617.816 1128.732, 1592.993 1158 C 1521.248 1242.590, 1486.219 1284.355, 1432.377 1349.500 C 1348.177 1451.375, 1271.902 1547.053, 1212.347 1625.500 C 1159.740 1694.795, 1104.123 1770.558, 1105.185 1771.476 C 1105.518 1771.763, 1107.239 1770.813, 1250 1691.460 C 1300.325 1663.487, 1344.875 1638.752, 1349 1636.493 C 1353.125 1634.234, 1411.850 1601.632, 1479.500 1564.045 C 1547.150 1526.458, 1607.675 1492.874, 1614 1489.414 C 1631.103 1480.058, 1629.503 1482.154, 1630.855 1467.322 C 1632.709 1446.967, 1637.819 1386.845, 1638.998 1371.500 C 1640.443 1352.699, 1646.309 1283.437, 1650.008 1241.500 C 1651.658 1222.800, 1654.347 1190.400, 1655.984 1169.500 C 1657.621 1148.600, 1660.073 1118.917, 1661.433 1103.537 C 1662.794 1088.157, 1663.756 1075.423, 1663.572 1075.238 C 1663.388 1075.054, 1661.231 1077.288, 1658.780 1080.202" stroke="none" fill="#5b2c5b" fill-rule="evenodd"/></svg>